<svg width="10" height="12" viewBox="0 0 10 12" fill="none" xmlns="http://www.w3.org/2000/svg">
<path d="M4.76989 2.41965C2.12216 2.43258 -0.0219141 4.54309 -0.00931048 7.12404C0.00329314 9.70499 2.16787 11.7945 4.81561 11.7815C7.46334 11.7686 9.60741 9.65809 9.59481 7.07714C9.58221 4.49619 7.41763 2.40672 4.76989 2.41965ZM4.80989 10.6113C2.82364 10.621 1.20066 9.05433 1.1912 7.11818C1.18175 5.18202 2.78935 3.59958 4.77561 3.58988C6.76186 3.58018 8.38484 5.14685 8.3943 7.083C8.40375 9.01916 6.79615 10.6016 4.80989 10.6113Z" fill="#8C8C8C"/>
<path d="M4.18106 4.76305L5.38158 4.75719L5.39586 7.68278L4.19535 7.68864L4.18106 4.76305ZM2.96055 0.673088L6.56209 0.6555L6.56781 1.82574L2.96626 1.84332L2.96055 0.673088Z" fill="#8C8C8C"/>
<path d="M9.15513 3.98216L7.9491 2.81794L8.79397 1.98633L10 3.15055L9.15513 3.98216Z" fill="#8C8C8C"/>
</svg>
